<svg fill="none" height="388" viewBox="0 0 338 388" width="338" xmlns="http://www.w3.org/2000/svg" xmlns:xlink="http://www.w3.org/1999/xlink"><filter id="a" color-interpolation-filters="sRGB" filterUnits="userSpaceOnUse" height="387.399" width="338" x="0" y="0"><feFlood flood-opacity="0" result="BackgroundImageFix"/><feColorMatrix in="SourceAlpha" type="matrix" values="0 0 0 0 0 0 0 0 0 0 0 0 0 0 0 0 0 0 127 0"/><feOffset dx="-13" dy="4"/><feGaussianBlur stdDeviation="27.5"/><feColorMatrix type="matrix" values="0 0 0 0 0.142639 0 0 0 0 0.181133 0 0 0 0 0.216667 0 0 0 0.2 0"/><feBlend in2="BackgroundImageFix" mode="normal" result="effect1_dropShadow"/><feBlend in="SourceGraphic" in2="effect1_dropShadow" mode="normal" result="shape"/></filter><g filter="url(#a)"><path d="m207.811 267.596c-63.744-11.831-138.1015-25.813-138.3166-1.147-.2151 23.304 28.1079 41.445 52.4876 52.989 13.265-5.019 28.179-6.023 42.305-8.174 24.953-3.872 49.476.144 74.501.072 26.1-10.684 39.867-29.471 39.867-29.471s-21.655-5.091-70.844-14.269z" fill="#616161"/><path d="m154.104 311.913c2.008 1.075-22.371 12.548-20.435 13.552 10.468 3.298 113.22 3.872 122.613 1.434 16.277-4.159-30.187-24.379-13.982-27.749 26.674-18.859 41.732-43.597 27.248-46.68-16.277-3.442-41.804 5.091-58.296 6.812-12.548 1.291-19.862 2.151-31.765-2.008l-40.154-4.445c-41.158 8.174-49.6191 23.017-50.0493 22.802 0 5.879 30.0443 17.926 56.9333 32.195 2.796.932 5.377 2.223 7.887 4.087z" fill="#00bad1"/><path d="m154.104 311.913c2.008 1.075-22.371 12.548-20.435 13.552 10.468 3.298 113.22 3.872 122.613 1.434 16.277-4.159-30.187-24.379-13.982-27.749 26.674-18.859 41.732-43.597 27.248-46.68-16.277-3.442-41.804 5.091-58.296 6.812-12.548 1.291-19.862 2.151-31.765-2.008l-40.154-4.445c-41.158 8.174-49.6191 23.017-50.0493 22.802 0 5.879 30.0443 17.926 56.9333 32.195 2.796.932 5.377 2.223 7.887 4.087z" fill="#00547a" opacity=".32"/><path d="m138.76 296.138 13.05 17.639s-14.197 9.895-18.141 11.688c-3.944 1.792-35.9953 3.083-44.3847-3.37-7.5289-5.737-10.1102-13.337-6.2382-16.923 4.8759-4.517 16.7787-6.023 22.6589-6.811 13.121-1.721 33.055-2.223 33.055-2.223z" fill="#000"/><path d="m130.873 296.786 7.529 26.602s126.342-1.865 139.536-21.296c16.922-17.496 23.805-51.914-10.326-52.559-5.163-.072-13.48 1.505-22.013 4.445-46.392 15.56-114.726 42.808-114.726 42.808z" fill="#00bad1"/><path d="m270.48 294.916c-7.887 0-14.484-3.944-20.937-7.888-8.103-4.875-16.922-8.102-26.172-10.253-7.959-1.865-16.349-4.661-22.73-6.812-36.713 11.903-69.768 26.745-69.768 26.745l5.879 20.866c3.227.789 6.454 1.578 9.68 2.51 3.872.359 7.744.789 11.473 1.793.789.215 1.577.358 2.366.502 36.282-2.008 109.492-7.601 119.172-21.87 1.578-2.295 4.733-6.238 5.88-8.82-2.796 1.147-11.257 3.227-14.843 3.227z" fill="#00547a" opacity=".32"/><path d="m239.648 297.712-10.97 13.911s17.854 10.899 21.583 12.692c3.728 1.792 29.542 3.011 37.716-2.869 7.314-5.306 10.039-12.404 6.453-15.918-4.517-4.517-15.846-6.238-21.439-7.17-12.262-2.08-33.343-.646-33.343-.646z" fill="#000"/><path d="m252.339 294.27-11.257 31.119s-155.1676-12.189-167.7875-33.916c-7.529-12.978-8.6762-33.127 7.6006-40.297 9.9668-4.446 24.1639-6.669 44.2409.215 50.05 17.28 127.203 42.879 127.203 42.879z" fill="#00bad1"/><path d="m191.391 87.9102h-10.971-10.971s-3.155 29.9008-8.891 33.4858c0 0-7.099 35.35 19.862 35.35 32.625 0 19.862-35.35 19.862-35.35-5.736-3.585-8.891-33.4858-8.891-33.4858z" fill="#e45940"/><path d="m208.959 93.7852c-3.012-3.5135-6.669 1.7926-6.669 1.7926s5.019-19.7903 0-28.4664c-5.019-8.6762-21.296-4.0872-21.296-4.0872s-16.277-4.589-21.296 4.0872c-5.019 8.6761 0 28.4664 0 28.4664s-3.657-5.3061-6.669-1.7926c-3.011 3.5135 5.02 12.3328 6.884 13.4088 0 0 11.759 21.941 21.153 21.941 9.393 0 21.152-21.941 21.152-21.941 1.721-1.147 9.752-9.967 6.741-13.4088z" fill="#f88667"/><g fill="#110239"><path d="m176.836 70.8399s-12.333 2.1512-13.695 8.8196c-.645 3.2267.072 6.7401.645 9.8951.287 1.6492 1.506 10.6844 1.076 10.8994s-1.291 0-1.578-.287c-1.649-1.2909-3.011-3.2986-4.158-5.0195-2.367-3.4418-5.737-2.8681-6.669-.7169 0 0-2.725-32.482 10.827-33.6293 13.552-1.1472 13.552 10.0386 13.552 10.0386z"/><path d="m184.866 70.8399s12.333 2.1512 13.695 8.8196c.646 3.2267-.072 6.7401-.645 9.8951-.287 1.6492-1.506 10.6844-1.076 10.8994.431.215 1.291 0 1.578-.287 1.649-1.2909 3.011-3.2986 4.159-5.0195 2.366-3.4418 5.736-2.8681 6.668-.7169 0 0 2.725-32.482-10.827-33.6293-13.552-1.1472-13.552 10.0386-13.552 10.0386z"/><path d="m203.007 62.7405s.287-5.3779-5.808-8.6762c-6.094-3.2984-18.212-4.8042-27.749 0-9.608 4.8041-12.476 5.8797-15.273 4.3022-2.796-1.5774-1.004-3.2267-1.004-3.2267s-6.31-.0717-5.951 9.6801c.358 9.7517 12.261 21.8697 27.964 21.8697 23.734 0 31.478-16.707 27.821-23.9491z"/></g><path d="m200.283 121.395c-1.147 30.044-19.862 26.96-19.862 26.96s-18.715 3.084-19.862-26.96c0 0-29.901 8.246-44.528 18.069 0 0 6.238 26.244 6.597 55.427l17.065 66.255 40.656-7.386 40.656 7.386 17.066-66.255c.43-29.112 6.597-55.427 6.597-55.427-14.484-9.823-44.385-18.069-44.385-18.069z" fill="#d0d1de"/><path d="m235.202 156.819c-18.571 9.896-27.606 32.697-45.676 43.883-18.643 11.545-31.908-11.759-41.014-23.949-7.816-10.469-17.783-18.93-29.901-23.806 1.721 10.397 3.729 25.67 4.015 41.876l17.066 66.254 40.656-4.948 40.656 4.948 17.066-66.254c.215-15.847 2.151-30.833 3.872-41.23-2.294 1.004-4.589 2.079-6.74 3.226z" fill="#b8b9cd"/><path d="m116.03 139.462s-33.916 79.592-34.2745 90.562c-.7887 21.225 45.6755 29.829 66.8285 25.957l8.604-1.577c0-.072-31.478-115.516-41.158-114.942z" fill="#d0d1de"/><path d="m244.668 139.462s34.203 79.592 34.274 90.562c.144 21.44-45.675 29.829-66.828 25.957l-8.604-1.577c0-.072 31.406-115.516 41.158-114.942z" fill="#d0d1de"/><path d="m130.442 167.357c-.071 3.657-.502 7.529-1.434 11.688-3.298 14.413-8.389 29.542-3.011 44.17 4.087 11.114 10.612 22.372 16.707 32.984 2.079.071 4.087 0 5.88-.359l8.604-1.577c0 .071-14.412-52.846-26.746-86.906z" fill="#b8b9cd"/><path d="m224.447 255.553c2.725-6.74 4.374-13.767 4.088-21.296-.502-14.771-.574-29.542-.359-44.313.072-6.382.287-12.548.645-18.643-11.974 33.988-25.311 83.033-25.311 83.033l8.604 1.577c3.586.646 7.744.431 12.333-.358z" fill="#b8b9cd"/><path d="m233.626 255.266h-106.553v6.31h106.553z" fill="#110239"/><path d="m249.328 181.342h-137.959s-7.457 0-6.166 8.317c1.291 8.318 18.643 66.398 22.156 66.398h52.99 52.989c3.083 0 20.866-58.08 22.156-66.398 1.291-8.317-6.166-8.317-6.166-8.317z" fill="#110239"/><path d="m180.349 227.302c3.168 0 5.736-2.568 5.736-5.737 0-3.168-2.568-5.736-5.736-5.736s-5.737 2.568-5.737 5.736c0 3.169 2.569 5.737 5.737 5.737z" fill="#fff"/></g></svg>